<?xml version="1.0" standalone="no"?>
<!DOCTYPE svg PUBLIC "-//W3C//DTD SVG 20010904//EN"
 "http://www.w3.org/TR/2001/REC-SVG-20010904/DTD/svg10.dtd">
<svg version="1.0" xmlns="http://www.w3.org/2000/svg"
 width="300.000000pt" height="300.000000pt" viewBox="0 0 300.000000 300.000000"
 preserveAspectRatio="xMidYMid meet">
<metadata>
Created by potrace 1.11, written by Peter Selinger 2001-2013
</metadata>
<g transform="translate(0.000000,300.000000) scale(0.100000,-0.100000)"
fill="#000000" stroke="none">
<path d="M1378 2062 c-62 -48 -150 -114 -194 -147 -45 -33 -141 -105 -213
-159 l-131 -99 0 -124 c0 -97 3 -123 13 -117 6 4 64 46 127 92 63 47 142 105
175 129 141 103 243 179 290 214 28 22 54 34 60 30 12 -10 312 -231 501 -370
153 -113 324 -239 529 -390 121 -89 157 -111 184 -111 24 0 50 -13 94 -46 l62
-46 33 39 c52 59 67 84 56 91 -13 9 -160 118 -449 335 l-230 172 -3 283 -2
282 -195 0 -195 0 0 -131 c0 -102 -3 -130 -13 -126 -7 2 -96 68 -199 145
l-186 141 -114 -87z"/>
<path d="M1404 1662 c-49 -36 -147 -109 -219 -162 -189 -139 -709 -520 -759
-555 -51 -36 -127 -100 -106 -89 8 4 58 40 110 78 l95 71 968 5 968 5 -128 94
c-70 52 -186 138 -258 191 -229 169 -345 254 -395 290 -26 19 -79 58 -117 86
l-70 52 -89 -66z"/>
<path d="M265 1225 c-126 -95 -231 -177 -232 -182 -3 -9 85 -113 96 -113 4 0
32 18 61 40 31 23 65 40 80 40 17 0 64 27 133 77 l107 77 0 118 c0 65 -3 118
-7 118 -5 -1 -111 -79 -238 -175z"/>
<path d="M2710 923 c-38 -57 -41 -63 -36 -63 2 0 20 23 40 50 20 28 33 50 28
50 -4 0 -18 -17 -32 -37z"/>
</g>
</svg>
